<?xml version="1.0" standalone="no"?>
<!DOCTYPE svg PUBLIC "-//W3C//DTD SVG 20010904//EN"
 "http://www.w3.org/TR/2001/REC-SVG-20010904/DTD/svg10.dtd">
<svg version="1.0" xmlns="http://www.w3.org/2000/svg"
 width="1179.000000pt" height="1179.000000pt" viewBox="0 0 1179.000000 1179.000000"
 preserveAspectRatio="xMidYMid meet">
<metadata>
Created by potrace 1.14, written by Peter Selinger 2001-2017
</metadata>
<g transform="translate(0.000000,1179.000000) scale(0.100000,-0.100000)"
fill="#000000" stroke="none">
<path d="M8725 9530 c-27 -4 -93 -13 -145 -19 -87 -10 -144 -20 -314 -51 -32
-6 -67 -15 -77 -20 -10 -6 -27 -10 -39 -10 -19 0 -103 -25 -205 -61 -16 -6
-52 -17 -80 -26 -45 -14 -175 -64 -214 -82 -127 -60 -327 -161 -366 -186 -27
-17 -86 -54 -130 -80 -75 -46 -113 -73 -261 -185 -32 -24 -119 -100 -192 -169
-127 -119 -133 -123 -151 -106 -25 22 -124 24 -149 3 -11 -10 -50 -18 -111
-22 -52 -4 -142 -14 -200 -22 -58 -9 -128 -19 -156 -23 -71 -10 -145 -50 -182
-99 -26 -35 -32 -53 -39 -119 -8 -84 11 -522 25 -588 5 -22 14 -74 21 -115 7
-41 21 -118 32 -170 11 -52 22 -104 25 -115 2 -11 -3 -45 -12 -75 -53 -182
-104 -429 -105 -503 0 -21 -5 -47 -10 -58 -21 -37 -35 -400 -35 -874 0 -432
14 -850 30 -876 4 -5 10 -46 15 -92 10 -89 30 -194 55 -297 9 -36 20 -83 25
-105 4 -22 16 -65 25 -95 9 -30 20 -68 25 -85 67 -242 240 -566 454 -852 83
-111 372 -394 497 -487 305 -227 645 -394 1004 -492 33 -9 71 -20 85 -24 29
-10 325 -63 455 -82 119 -17 883 -18 1005 -1 47 6 126 17 175 23 146 17 416
72 520 105 22 7 67 20 100 30 260 78 667 268 883 412 118 79 163 120 446 397
296 290 316 312 325 355 12 58 -1 124 -33 162 -13 15 -45 70 -71 121 -26 51
-51 98 -55 103 -8 11 -46 80 -115 210 -26 50 -62 115 -80 145 -18 30 -52 93
-77 140 -152 286 -393 719 -411 738 -29 31 -80 52 -126 52 -37 0 -52 -8 -238
-121 -180 -110 -343 -187 -458 -218 -16 -5 -50 -16 -75 -26 -25 -9 -63 -20
-85 -25 -22 -5 -65 -16 -95 -25 -30 -10 -80 -21 -110 -26 -30 -4 -102 -16
-160 -25 -112 -17 -426 -29 -497 -19 -40 6 -43 8 -43 38 0 30 -40 153 -75 233
-8 18 -22 50 -31 71 -37 83 -77 181 -94 233 -36 105 -128 365 -152 430 -14 36
-31 88 -37 115 -7 28 -19 61 -27 73 -25 38 -89 60 -186 64 l-86 3 -11 95 c-7
52 -14 111 -16 130 l-4 35 45 1 c49 2 157 21 189 34 11 4 52 21 90 36 75 30
139 67 224 132 l53 40 117 -5 c258 -11 518 -80 696 -185 83 -49 240 -164 275
-203 14 -15 37 -33 52 -41 40 -21 127 -18 165 6 31 18 92 96 140 177 13 21 59
98 103 171 44 73 80 135 80 138 0 2 33 57 73 122 41 64 108 177 151 250 42 73
85 145 95 160 24 35 141 230 141 236 0 2 29 53 63 113 35 59 102 182 149 273
47 91 120 230 163 310 164 307 255 499 255 537 0 56 -40 113 -126 179 -164
126 -219 164 -414 289 -127 82 -454 239 -565 272 -27 8 -66 21 -85 28 -19 7
-55 18 -80 25 -25 7 -56 17 -70 23 -14 5 -43 14 -65 18 -22 4 -71 15 -110 24
-38 9 -93 20 -121 25 -29 4 -61 11 -71 14 -11 3 -73 11 -139 16 -65 6 -144 15
-174 20 -65 10 -833 10 -905 0z m110 -140 c-8 -13 -65 -13 -85 0 -11 7 0 10
38 10 33 0 51 -4 47 -10z m780 0 c-3 -5 -21 -10 -40 -10 -19 0 -37 5 -40 10
-4 6 12 10 40 10 28 0 44 -4 40 -10z m-1032 -27 c-13 -2 -33 -2 -45 0 -13 2
-3 4 22 4 25 0 35 -2 23 -4z m1275 0 c-15 -2 -42 -2 -60 0 -18 2 -6 4 27 4 33
0 48 -2 33 -4z m-1443 -23 c3 -6 -4 -10 -17 -10 -18 0 -20 2 -8 10 19 12 18
12 25 0z m1585 0 c0 -5 -8 -10 -17 -10 -15 0 -16 2 -3 10 19 12 20 12 20 0z
m-1712 -27 c-10 -2 -26 -2 -35 0 -10 3 -2 5 17 5 19 0 27 -2 18 -5z m1845 0
c-7 -2 -21 -2 -30 0 -10 3 -4 5 12 5 17 0 24 -2 18 -5z m-2036 -49 c-3 -3 -12
-4 -19 -1 -8 3 -5 6 6 6 11 1 17 -2 13 -5z m2300 -30 c-3 -3 -12 -4 -19 -1 -8
3 -5 6 6 6 11 1 17 -2 13 -5z m-2530 -50 c-3 -3 -12 -4 -19 -1 -8 3 -5 6 6 6
11 1 17 -2 13 -5z m3584 -712 c-6 -2 -11 -11 -11 -19 0 -8 -16 -45 -36 -82
-20 -36 -67 -124 -104 -196 -37 -71 -82 -155 -99 -185 -17 -30 -58 -109 -92
-175 -33 -66 -65 -127 -70 -135 -5 -8 -27 -47 -49 -87 -22 -39 -48 -87 -58
-105 -10 -18 -34 -60 -52 -93 -18 -33 -65 -112 -105 -175 -39 -63 -74 -122
-78 -130 -4 -8 -11 -22 -17 -30 -35 -52 -160 -263 -160 -270 0 -4 -6 -13 -14
-19 -8 -7 -22 -26 -31 -44 -8 -18 -24 -45 -34 -62 -10 -16 -30 -52 -45 -80
-16 -27 -33 -57 -40 -65 -7 -8 -21 -32 -31 -52 -11 -21 -22 -38 -26 -38 -4 0
-10 -8 -13 -17 -12 -32 -104 -174 -120 -185 -16 -11 -17 -11 -66 33 -95 87
-249 193 -361 250 -74 37 -233 89 -344 114 -158 34 -200 49 -197 71 2 10 13
27 25 37 12 10 46 37 75 60 28 23 55 50 58 61 5 16 13 18 58 13 52 -6 210 -48
256 -69 14 -6 39 -16 55 -23 17 -7 80 -37 140 -65 61 -29 127 -59 149 -66 106
-38 181 4 265 146 140 237 231 399 231 411 0 8 -12 28 -28 44 -36 41 -166 145
-181 145 -6 0 -11 3 -11 8 0 4 -9 12 -19 17 -53 27 -160 79 -191 92 -19 9 -43
20 -52 24 -10 5 -27 9 -38 9 -10 0 -34 6 -52 14 -52 22 -102 36 -127 36 -12 0
-32 5 -43 11 -12 6 -51 16 -87 21 -36 5 -91 13 -121 18 -30 5 -96 9 -146 9
-73 1 -94 5 -110 19 -49 46 -109 69 -209 82 -55 7 -122 10 -150 6 -27 -4 -73
-9 -102 -12 -42 -5 -61 -13 -96 -45 -28 -24 -47 -50 -51 -70 -8 -40 -23 -59
-47 -59 -10 0 -35 -7 -56 -16 -21 -9 -47 -20 -58 -24 -44 -16 -160 -74 -163
-82 -2 -4 -10 -8 -17 -8 -26 0 -171 -114 -262 -206 -52 -52 -99 -94 -106 -94
-6 0 -23 9 -37 19 -23 18 -24 22 -12 53 15 42 16 167 1 239 -11 58 -23 161
-39 334 -8 98 -26 209 -45 287 l-7 27 653 -2 c735 -3 642 5 999 -88 25 -6 70
-21 100 -34 30 -12 87 -33 125 -45 39 -13 75 -29 80 -36 6 -6 62 -26 125 -44
152 -43 294 -86 405 -122 50 -16 155 -50 235 -74 80 -25 153 -53 162 -61 20
-18 23 -44 7 -60 -15 -15 -2 -33 24 -33 24 0 83 32 107 59 20 21 130 199 130
210 0 5 6 14 14 20 8 7 22 26 30 44 9 18 28 50 42 72 13 22 30 51 37 65 6 14
14 27 18 30 3 3 21 32 39 65 18 33 41 74 51 90 10 17 26 44 34 62 9 18 23 37
31 44 8 6 14 15 14 20 0 10 107 185 130 212 14 17 15 17 19 0 2 -9 -2 -19 -8
-21z m-4943 -79 c11 -10 26 -36 31 -58 14 -52 35 -386 27 -450 -3 -27 1 -106
9 -175 7 -69 20 -195 29 -280 9 -85 21 -195 27 -245 21 -169 22 -235 4 -275
-18 -40 -13 -36 -255 -155 -74 -36 -162 -81 -195 -100 -33 -19 -65 -35 -70
-35 -6 0 -19 28 -29 63 -36 127 -58 203 -72 246 -8 25 -14 57 -14 73 0 29 -5
53 -41 198 -12 47 -25 108 -30 135 -4 28 -15 86 -24 130 -22 108 -44 283 -65
525 -12 138 -8 251 11 292 9 21 50 48 72 48 5 0 23 6 40 14 52 22 140 37 301
51 212 17 221 17 244 -2z m268 -165 c-9 -12 -16 -30 -16 -40 0 -16 11 -18 93
-19 78 -1 87 -2 57 -11 -19 -5 -39 -14 -44 -19 -6 -5 -17 -9 -26 -9 -22 0
-115 -91 -133 -131 -8 -19 -18 -47 -20 -64 -3 -16 -10 -46 -14 -65 -16 -64
-22 0 -7 81 18 104 18 112 -6 104 -19 -6 -20 -2 -20 69 0 69 2 75 23 82 12 4
33 15 46 25 13 11 37 19 53 19 28 0 29 -1 14 -22z m1553 -12 c-7 -7 -209 -9
-216 -2 -4 3 45 6 107 6 62 0 111 -2 109 -4z m-298 -23 c0 -4 -24 -12 -53 -16
-29 -4 -75 -13 -102 -19 -44 -9 -50 -8 -70 11 -14 15 -17 24 -9 29 15 10 233
5 234 -5z m-968 -10 c-13 -2 -35 -2 -50 0 -16 2 -5 4 22 4 28 0 40 -2 28 -4z
m637 -39 c40 -23 77 -92 91 -167 5 -29 16 -133 24 -232 8 -99 22 -217 30 -261
8 -45 15 -115 15 -156 0 -67 -3 -79 -29 -115 -56 -77 -82 -87 -316 -118 -105
-14 -246 -43 -366 -75 -70 -19 -162 -12 -211 15 -77 43 -85 58 -103 180 -83
582 -89 635 -71 701 33 125 89 158 335 195 69 10 153 23 186 29 186 33 362 35
415 4z m1429 -486 c64 -12 85 -23 124 -63 l28 -30 -5 -110 c-6 -131 -19 -239
-34 -280 -6 -16 -17 -50 -24 -75 -21 -75 -64 -149 -138 -235 -79 -92 -301
-285 -329 -285 -5 0 -14 -6 -21 -14 -14 -18 -152 -86 -173 -86 -9 0 -18 -4
-21 -9 -3 -5 -20 -11 -38 -13 -18 -3 -54 -11 -80 -18 -42 -12 -51 -12 -88 5
-48 22 -52 30 -145 275 -22 57 -42 134 -60 230 -13 66 -13 77 1 98 8 12 23 25
32 28 37 12 60 22 132 56 249 120 288 138 296 138 9 0 47 32 107 87 41 38 65
92 72 164 3 35 8 73 10 84 6 30 56 55 112 56 26 1 62 5 78 9 32 8 78 5 164
-12z m-2412 -275 c9 -21 19 -65 24 -98 17 -124 28 -181 43 -220 27 -72 18
-105 -28 -105 -17 0 -37 132 -45 300 -3 74 -10 141 -14 148 -5 6 -5 12 -2 12
3 0 13 -17 22 -37z m-777 -503 c0 -28 27 -154 40 -185 4 -11 16 -67 25 -125
26 -164 49 -227 104 -281 26 -25 68 -55 94 -68 25 -12 58 -32 73 -44 18 -13
42 -22 66 -22 31 0 46 8 85 47 112 108 196 151 239 124 16 -11 23 -29 28 -73
6 -58 8 -68 27 -198 16 -109 30 -388 21 -410 -5 -11 -5 -108 -1 -215 8 -190
21 -271 51 -307 17 -21 37 -184 38 -313 0 -63 5 -144 11 -180 9 -59 19 -289
36 -820 l6 -194 -39 29 c-71 54 -89 69 -144 125 -131 133 -380 438 -380 466 0
4 -11 22 -25 40 -14 18 -25 37 -25 42 0 6 -4 12 -9 14 -15 6 -171 303 -171
327 0 6 -4 19 -9 29 -5 9 -17 37 -26 62 -9 25 -21 53 -26 62 -5 10 -9 25 -9
35 0 17 -5 36 -34 128 -8 28 -17 97 -19 155 -5 110 -5 111 -72 225 -14 24 -24
57 -24 83 -1 23 -8 59 -16 79 -8 19 -15 50 -15 67 0 17 -9 85 -20 151 -15 92
-20 165 -19 315 1 251 13 479 33 605 9 55 20 125 25 156 5 31 14 66 20 77 6
11 11 31 11 44 0 13 5 29 12 36 9 9 15 3 25 -26 7 -20 13 -48 13 -62z m684
-167 c-17 -37 -39 -67 -58 -80 -17 -11 -72 -55 -122 -97 -51 -42 -97 -76 -103
-76 -16 0 -146 91 -146 103 0 5 7 13 15 17 8 4 26 13 40 20 34 18 197 99 300
148 46 23 88 38 93 33 5 -5 -4 -35 -19 -68z m1867 -821 c27 -3 36 -42 27 -112
-4 -36 -10 -135 -13 -220 -6 -209 -15 -319 -26 -326 -5 -3 -9 4 -9 15 0 11 -4
23 -10 26 -5 3 -10 15 -10 26 0 23 -47 128 -67 147 -7 7 -13 30 -13 51 0 21
-4 51 -9 67 -15 47 -43 256 -39 289 2 24 9 31 33 35 28 5 98 5 136 2z m144
-320 c9 -31 21 -66 25 -77 5 -11 16 -45 26 -75 9 -30 20 -64 24 -75 4 -11 15
-42 25 -70 20 -59 25 -72 59 -148 14 -32 26 -62 26 -67 0 -6 4 -18 9 -28 8
-15 30 -71 51 -127 46 -128 47 -135 17 -164 -31 -29 -47 -20 -47 25 0 38 -88
311 -124 382 -22 44 -40 97 -81 237 -9 33 -23 79 -31 103 -16 48 -19 156 -5
148 5 -4 17 -32 26 -64z m-284 -256 c5 -6 9 -29 9 -53 0 -36 -3 -43 -19 -43
-19 0 -71 -52 -71 -71 0 -8 -47 -87 -60 -99 -9 -9 -59 -124 -74 -170 -17 -55
-44 -77 -118 -92 -87 -18 -94 -12 -175 153 -113 230 -106 211 -82 232 12 9 32
17 44 17 13 0 59 11 102 24 43 13 103 29 133 36 90 19 215 61 256 84 33 19 40
20 42 6 2 -8 8 -19 13 -24z m2572 -366 c82 -161 121 -235 137 -255 7 -9 30
-51 115 -210 18 -33 42 -76 53 -95 11 -19 36 -64 55 -100 19 -36 45 -83 57
-105 12 -22 39 -71 60 -110 65 -122 112 -209 135 -250 12 -22 36 -67 54 -100
18 -33 39 -65 47 -71 15 -12 19 -44 7 -44 -5 0 -136 -126 -293 -281 -157 -154
-303 -292 -325 -307 -22 -15 -42 -29 -45 -32 -7 -9 -100 -70 -135 -90 -155
-87 -205 -113 -367 -189 -48 -23 -94 -41 -101 -41 -7 0 -17 -4 -22 -9 -6 -5
-37 -18 -70 -29 -33 -11 -78 -28 -100 -38 -22 -9 -53 -21 -70 -25 -16 -4 -52
-15 -80 -23 -108 -32 -172 -49 -210 -56 -22 -4 -78 -15 -125 -24 -299 -58
-418 -69 -826 -73 -334 -4 -387 -2 -525 17 -282 38 -508 86 -639 135 -25 9
-54 19 -65 21 -11 3 -29 10 -40 14 -11 5 -60 25 -110 45 -345 139 -624 322
-880 579 -77 78 -149 152 -160 166 -11 14 -36 45 -55 70 -19 25 -37 47 -40 50
-23 22 -128 183 -185 285 -94 167 -138 267 -196 435 -31 93 -39 122 -60 225
-6 28 -15 54 -20 59 -5 6 -9 36 -9 68 0 32 -4 58 -10 58 -5 0 -10 19 -9 43 1
35 2 38 8 17 5 -14 16 -40 25 -59 10 -18 38 -83 62 -145 25 -61 75 -167 111
-236 37 -69 89 -170 116 -225 48 -98 140 -260 181 -320 12 -16 26 -37 31 -46
13 -21 118 -160 148 -196 12 -15 103 -111 202 -215 l180 -188 145 -76 c376
-199 451 -234 625 -292 384 -129 751 -180 1230 -169 449 11 780 64 1160 188
83 27 161 54 175 61 14 6 39 17 55 24 142 61 194 87 290 138 135 73 232 137
352 234 58 46 90 78 86 85 -5 8 -9 6 -11 -5 -2 -12 -13 -18 -33 -18 -16 0 -29
-4 -29 -10 0 -5 -8 -10 -18 -10 -10 0 -27 -7 -38 -15 -10 -8 -29 -15 -41 -15
-12 0 -25 -4 -28 -10 -3 -5 -19 -10 -34 -10 -16 0 -34 -7 -41 -15 -7 -8 -25
-15 -41 -15 -16 0 -37 -4 -47 -9 -9 -5 -37 -15 -62 -21 -25 -7 -65 -18 -90
-25 -25 -8 -65 -19 -90 -25 -25 -7 -63 -18 -85 -26 -23 -8 -51 -14 -65 -14
-13 0 -37 -4 -54 -9 -131 -39 -435 -83 -771 -111 -153 -12 -563 -12 -665 1
-47 6 -128 14 -180 19 -52 5 -135 17 -185 25 -49 9 -110 20 -135 24 -25 5 -67
14 -95 21 -27 6 -68 16 -90 22 -40 9 -137 36 -165 45 -8 3 -28 9 -45 13 -59
16 -202 72 -235 91 -8 5 -23 12 -32 15 -23 8 -23 21 1 67 11 21 22 71 26 117
4 44 10 80 15 80 14 0 40 104 40 165 0 34 -6 129 -14 211 -16 157 -27 867 -14
879 8 8 46 0 64 -12 6 -5 31 -42 56 -83 28 -46 59 -83 79 -94 36 -22 103 -26
204 -12 53 7 63 6 87 -13 15 -12 41 -47 59 -77 47 -84 74 -97 184 -90 118 8
376 61 434 90 l46 22 0 119 c0 116 0 118 25 127 15 6 48 5 90 -2 126 -22 623
-1 704 29 15 6 41 11 58 11 18 0 45 4 62 9 17 5 56 16 86 24 215 59 338 103
485 173 74 36 225 121 246 140 8 8 19 14 23 14 3 0 32 18 64 39 31 22 62 36
69 33 6 -4 50 -81 96 -172z m-3492 122 c9 -20 28 -63 43 -96 16 -36 26 -76 26
-105 0 -26 5 -52 11 -58 14 -14 32 -349 25 -493 -2 -63 -10 -137 -16 -165 -6
-27 -15 -79 -20 -115 -18 -136 -87 -365 -134 -445 -102 -173 -112 -181 -258
-188 -146 -8 -138 -22 -138 233 0 111 -5 241 -10 289 -14 119 -30 1131 -18
1154 8 16 23 18 154 16 79 -1 147 1 151 4 3 4 43 7 87 7 l81 -1 16 -37z m977
-264 c7 -7 12 -33 12 -59 0 -26 4 -50 9 -53 5 -3 11 -19 13 -36 5 -34 -5 -40
-71 -43 -44 -1 -70 20 -71 59 0 11 -4 24 -9 30 -5 5 -12 23 -15 40 -6 26 -3
32 19 42 14 7 34 12 45 12 10 0 22 5 25 10 8 14 28 13 43 -2z"/>
<path d="M85 9391 c-16 -10 -39 -28 -50 -41 -20 -22 -20 -36 -20 -3210 l0
-3188 25 -28 c14 -15 73 -68 131 -118 58 -50 181 -158 273 -241 92 -82 189
-162 214 -177 l47 -28 1260 0 c1028 0 1295 3 1452 15 105 8 197 17 205 20 7 3
42 9 78 15 58 8 138 24 255 50 183 41 389 123 585 235 349 198 618 500 742
835 47 125 80 241 99 345 16 84 23 550 10 665 -5 52 -15 142 -22 200 -6 58
-15 152 -20 210 -10 122 -30 258 -54 350 -8 36 -20 83 -24 105 -5 22 -20 69
-34 105 -14 36 -34 88 -45 116 -24 64 -144 275 -187 329 -18 22 -35 45 -38 51
-4 6 20 62 51 125 51 99 72 157 112 294 5 17 17 98 26 182 18 157 14 270 -18
538 -6 50 -14 137 -18 195 -18 232 -32 370 -61 565 -23 162 -27 181 -37 210
-21 61 -32 102 -32 119 0 10 -6 30 -14 44 -8 15 -30 64 -50 108 -67 153 -141
263 -266 397 -130 140 -374 305 -575 390 -161 68 -288 111 -370 126 -23 4 -46
11 -53 15 -7 4 -37 12 -65 17 -29 5 -90 15 -137 24 -47 8 -161 24 -255 35
-163 19 -226 20 -1630 20 -1404 0 -1461 -1 -1490 -19z m2988 -134 c-34 -6 -74
-6 -120 0 -67 10 -67 10 52 10 108 0 115 -1 68 -10z m245 -24 c-10 -2 -28 -2
-40 0 -13 2 -5 4 17 4 22 1 32 -1 23 -4z m160 -24 c-12 -7 -24 -7 -35 0 -15 9
-12 10 17 10 29 0 32 -1 18 -10z m120 -26 c-10 -2 -26 -2 -35 0 -10 3 -2 5 17
5 19 0 27 -2 18 -5z m102 -23 c0 -5 -9 -10 -20 -10 -11 0 -20 5 -20 10 0 6 9
10 20 10 11 0 20 -4 20 -10z m93 -27 c-7 -2 -21 -2 -30 0 -10 3 -4 5 12 5 17
0 24 -2 18 -5z m67 -23 c0 -5 -4 -10 -10 -10 -5 0 -10 5 -10 10 0 6 5 10 10
10 6 0 10 -4 10 -10z m70 -30 c0 -5 -2 -10 -4 -10 -3 0 -8 5 -11 10 -3 6 -1
10 4 10 6 0 11 -4 11 -10z m67 -26 c-3 -3 -12 -4 -19 -1 -8 3 -5 6 6 6 11 1
17 -2 13 -5z m657 -858 c20 -29 36 -59 36 -66 0 -27 96 -80 147 -80 25 0 33
-4 33 -18 0 -10 7 -27 15 -38 8 -10 15 -41 15 -67 0 -27 4 -56 9 -66 6 -10 15
-62 21 -117 12 -104 22 -325 14 -286 -9 36 -24 25 -24 -17 0 -22 -6 -44 -15
-51 -8 -7 -15 -25 -15 -41 0 -16 -11 -52 -24 -81 -13 -29 -31 -73 -41 -98 -10
-25 -28 -58 -40 -75 -12 -16 -25 -37 -28 -45 -48 -105 -274 -345 -401 -425
-17 -11 -40 -28 -52 -38 -11 -10 -38 -28 -60 -40 -78 -44 -124 -72 -124 -77 0
-3 20 -13 43 -23 127 -56 201 -95 275 -146 46 -31 94 -63 106 -71 23 -15 123
-100 181 -155 18 -16 43 -46 56 -65 13 -19 46 -64 75 -100 29 -36 64 -87 80
-115 15 -27 35 -63 45 -80 61 -101 128 -280 149 -400 5 -27 14 -61 19 -75 15
-40 34 -328 27 -410 -4 -41 -10 -133 -15 -205 -5 -71 -13 -148 -19 -170 -5
-22 -15 -65 -22 -95 -7 -30 -16 -64 -20 -75 -4 -11 -15 -40 -25 -65 -10 -25
-21 -54 -25 -65 -7 -18 -58 -121 -84 -170 -65 -121 -283 -368 -406 -458 -30
-23 -59 -45 -65 -49 -67 -55 -186 -127 -300 -182 -77 -37 -148 -72 -157 -77
-10 -5 -26 -9 -35 -9 -10 0 -27 -7 -37 -15 -11 -8 -30 -15 -42 -15 -13 0 -26
-4 -29 -10 -3 -5 -16 -10 -28 -10 -12 0 -35 -7 -51 -15 -15 -8 -41 -15 -55
-15 -15 0 -31 -3 -35 -7 -9 -9 -102 -31 -176 -42 -30 -4 -62 -11 -70 -14 -8
-4 -49 -12 -90 -18 -72 -10 -123 -15 -405 -38 -79 -6 -572 -10 -1266 -11 -625
0 -1170 -3 -1212 -6 -89 -8 -89 -8 -6 -98 53 -58 172 -147 246 -185 76 -38
205 -69 344 -81 172 -15 2125 -8 2301 8 197 19 540 85 623 121 11 5 65 25 120
46 279 103 554 305 720 530 23 30 113 175 236 378 46 76 97 153 112 170 l28
32 -6 -45 c-18 -123 -35 -193 -71 -280 -115 -285 -277 -489 -529 -671 -157
-113 -312 -194 -490 -254 -44 -14 -89 -31 -100 -35 -26 -12 -178 -50 -235 -60
-25 -4 -74 -13 -110 -20 -36 -6 -87 -15 -115 -20 -141 -25 -412 -30 -1596 -30
l-1245 0 -45 37 c-24 21 -46 40 -49 43 -10 10 -106 95 -174 155 -38 33 -74 65
-80 70 -100 89 -215 188 -231 197 -10 6 -11 426 -8 1955 2 1071 5 2090 6 2263
l3 315 71 -3 c69 -4 72 -3 99 27 15 17 33 31 39 31 7 0 18 7 25 15 7 8 31 20
53 26 23 6 52 19 65 30 14 10 31 19 39 19 8 0 27 6 41 14 57 30 109 53 147 66
45 15 138 60 145 70 10 15 205 103 325 147 22 8 44 19 50 24 5 5 47 9 93 9 75
0 87 3 118 26 19 15 34 32 34 39 0 18 62 55 92 55 14 0 31 7 38 15 16 19 34
19 50 0 10 -13 131 -14 911 -15 654 0 900 3 905 12 5 8 60 9 193 4 102 -3 354
-9 559 -12 364 -7 372 -7 372 13 0 10 -4 23 -9 29 -8 8 -4 74 5 74 1 0 19 -24
38 -54z m355 -1545 c1 -80 -3 -158 -9 -175 -5 -17 -16 -56 -25 -86 -9 -30 -20
-64 -25 -75 -5 -11 -18 -42 -30 -68 -12 -27 -37 -73 -56 -103 -30 -47 -39 -55
-62 -52 -17 2 -35 15 -49 37 -35 52 -24 98 71 285 92 181 150 319 161 386 7
40 9 42 16 20 4 -14 7 -90 8 -169z"/>
<path d="M1952 7982 c-10 -7 -13 -114 -12 -538 1 -291 5 -560 8 -599 l7 -70
285 0 c356 0 470 11 575 55 163 68 236 135 308 285 60 124 71 317 29 500 -17
75 -124 235 -156 235 -7 0 -23 11 -36 25 -13 14 -29 25 -36 25 -7 0 -27 8 -46
17 -61 31 -68 33 -87 33 -10 0 -36 7 -57 16 -33 14 -96 17 -404 21 -210 2
-371 0 -378 -5z m777 -929 c17 -10 31 -23 31 -30 0 -16 -115 -27 -195 -18 -54
5 -64 9 -57 22 16 27 56 41 124 42 46 1 76 -4 97 -16z"/>
<path d="M2176 5582 c-134 -1 -214 -6 -223 -13 -10 -9 -13 -129 -13 -634 0
-559 2 -623 16 -629 25 -10 609 -6 714 4 143 14 264 41 286 63 4 4 16 7 26 7
39 0 192 126 231 190 11 19 24 37 27 40 19 17 42 92 36 122 -4 23 -1 40 9 53
11 16 14 54 15 177 0 94 -4 159 -10 163 -5 3 -10 17 -10 31 0 62 -112 236
-180 279 -21 13 -41 29 -45 35 -3 5 -27 19 -53 30 -26 12 -55 25 -64 30 -10 6
-27 10 -39 10 -11 0 -30 5 -41 11 -47 25 -294 36 -682 31z m762 -706 c121 -39
97 -46 -162 -46 -194 0 -236 2 -236 14 0 20 79 47 175 60 53 7 156 -6 223 -28z
m146 -212 c17 -10 16 -14 -19 -53 -50 -55 -110 -94 -187 -122 -87 -31 -144
-41 -280 -46 l-118 -4 0 122 0 121 293 -4 c181 -2 299 -8 311 -14z"/>
</g>
</svg>
